<?xml version="1.0" encoding="utf-8"?>
<!-- Generator: Adobe Illustrator 24.3.0, SVG Export Plug-In . SVG Version: 6.00 Build 0)  -->
<svg version="1.1" id="Layer_1" xmlns="http://www.w3.org/2000/svg" xmlns:xlink="http://www.w3.org/1999/xlink" x="0px" y="0px"
	 viewBox="0 0 133.7 89.8" style="enable-background:new 0 0 133.7 89.8;" xml:space="preserve">
<style type="text/css">
	.st0{fill:#8E5924;}
	.st1{fill:#F89A1C;}
</style>
<polygon points="76.8,-90.9 66.8,-51 -8,-125.8 107.6,-139.9 66.8,-180.7 56.9,-160.7 66.8,-200.6 141.6,-125.8 26.1,-111.7 
	66.8,-71 "/>
<g>
	<polygon points="325.6,-125.6 341.3,-99.5 262.9,-99.5 316,-167.4 273.4,-167.4 278.6,-151.7 262.9,-177.8 341.3,-177.8 
		288.1,-109.9 330.8,-109.9 	"/>
	<g>
		<path d="M395.1-109.3c-16.2,0-29.4-13.2-29.4-29.4c0-16.2,13.2-29.4,29.4-29.4s29.4,13.2,29.4,29.4
			C424.5-122.4,411.3-109.3,395.1-109.3z M395.1-159.6c-11.6,0-21,9.4-21,21s9.4,21,21,21c11.6,0,21-9.4,21-21
			S406.7-159.6,395.1-159.6z"/>
	</g>
	<path d="M493-138.6c0,12.8-8.2,23.7-19.6,27.7c-3.1,1.1-6.4,1.7-9.8,1.7h-24.5v-8.4h24.5c11.6,0,21-9.4,21-21c0-11.6-9.4-21-21-21
		h-24.5v-8.4h24.5c3.4,0,6.7,0.6,9.8,1.7C484.9-162.3,493-151.4,493-138.6z"/>
	<path d="M604.6-138.6c0,12.8,8.2,23.7,19.6,27.7c3.1,1.1,6.4,1.7,9.8,1.7h24.5v-8.4h-24.5c-11.6,0-21-9.4-21-21
		c0-11.6,9.4-21,21-21h24.5v-8.4h-24.5c-3.4,0-6.7,0.6-9.8,1.7C612.7-162.3,604.6-151.4,604.6-138.6z"/>
	<rect x="508" y="-168" width="9.2" height="58.8"/>
	<polygon points="589.9,-109.3 580.6,-109.3 561,-156.3 541.5,-109.3 532.2,-109.3 556.4,-167.4 556.7,-168 565.4,-168 
		565.7,-167.4 	"/>
	<polygon points="565.9,-168 565.7,-167.4 565.4,-168 	"/>
	<polygon points="556.7,-168 556.4,-167.4 556.1,-168 	"/>
</g>
<g>
	<polygon class="st0" points="3.8,44.9 87.8,44.9 129.8,86.9 	"/>
	<polygon class="st1" points="3.8,44.9 87.8,44.9 129.8,2.9 	"/>
</g>
<g>
	<polygon class="st0" points="129.8,155.7 45.8,155.7 3.8,197.7 	"/>
	<polygon class="st1" points="129.8,155.7 45.8,155.7 3.8,113.7 	"/>
</g>
</svg>
