<?xml version="1.0" encoding="utf-8"?>
<!-- Generator: Adobe Illustrator 24.3.0, SVG Export Plug-In . SVG Version: 6.00 Build 0)  -->
<svg version="1.1" id="Layer_1" xmlns="http://www.w3.org/2000/svg" xmlns:xlink="http://www.w3.org/1999/xlink" x="0px" y="0px"
	 viewBox="0 0 150 150" style="enable-background:new 0 0 150 150;" xml:space="preserve">
<style type="text/css">
	.st0{fill:#FFFFFF;}
	.st1{fill:#8E5924;}
	.st2{fill:#F89A1C;}
</style>
<polygon points="85,109.9 75,149.8 0.2,75 115.7,60.9 75,20.2 65,40.1 75,0.2 149.8,75 34.3,89.1 75,129.8 "/>
<g>
	<polygon class="st0" points="333.8,75.2 349.4,101.3 271.1,101.3 324.2,33.4 281.5,33.4 286.8,49.1 271.1,23 349.4,23 296.3,90.9 
		339,90.9 	"/>
	<g>
		<path class="st0" d="M403.3,91.5c-16.2,0-29.4-13.2-29.4-29.4c0-16.2,13.2-29.4,29.4-29.4s29.4,13.2,29.4,29.4
			C432.7,78.4,419.5,91.5,403.3,91.5z M403.3,41.2c-11.6,0-21,9.4-21,21s9.4,21,21,21c11.6,0,21-9.4,21-21S414.9,41.2,403.3,41.2z"
			/>
	</g>
	<path class="st0" d="M501.2,62.2c0,12.8-8.2,23.7-19.6,27.7c-3.1,1.1-6.4,1.7-9.8,1.7h-24.5v-8.4h24.5c11.6,0,21-9.4,21-21
		c0-11.6-9.4-21-21-21h-24.5v-8.4h24.5c3.4,0,6.7,0.6,9.8,1.7C493,38.5,501.2,49.4,501.2,62.2z"/>
	<path class="st0" d="M612.7,62.2c0,12.8,8.2,23.7,19.6,27.7c3.1,1.1,6.4,1.7,9.8,1.7h24.5v-8.4h-24.5c-11.6,0-21-9.4-21-21
		c0-11.6,9.4-21,21-21h24.5v-8.4h-24.5c-3.4,0-6.7,0.6-9.8,1.7C620.9,38.5,612.7,49.4,612.7,62.2z"/>
	<rect x="516.2" y="32.8" class="st0" width="9.2" height="58.8"/>
	<polygon class="st0" points="598,91.5 588.8,91.5 569.2,44.5 549.6,91.5 540.4,91.5 564.6,33.4 564.9,32.8 573.6,32.8 573.8,33.4 	
		"/>
	<polygon class="st0" points="574.1,32.8 573.8,33.4 573.6,32.8 	"/>
	<polygon class="st0" points="564.9,32.8 564.6,33.4 564.3,32.8 	"/>
</g>
<g>
	<polygon class="st1" points="12,245.7 96,245.7 138,287.7 	"/>
	<polygon class="st2" points="12,245.7 96,245.7 138,203.7 	"/>
</g>
<g>
	<polygon class="st1" points="138,356.5 54,356.5 12,398.5 	"/>
	<polygon class="st2" points="138,356.5 54,356.5 12,314.5 	"/>
</g>
</svg>
