<?xml version="1.0" encoding="utf-8"?>
<!-- Generator: Adobe Illustrator 24.3.0, SVG Export Plug-In . SVG Version: 6.00 Build 0)  -->
<svg version="1.1" id="Layer_1" xmlns="http://www.w3.org/2000/svg" xmlns:xlink="http://www.w3.org/1999/xlink" x="0px" y="0px"
	 viewBox="0 0 134.1 89.8" style="enable-background:new 0 0 134.1 89.8;" xml:space="preserve">
<style type="text/css">
	.st0{fill:#8E5924;}
	.st1{fill:#F89A1C;}
</style>
<polygon points="77,-201.6 67,-161.8 -7.8,-236.5 107.8,-250.7 67,-291.4 57.1,-271.4 67,-311.3 141.8,-236.5 26.3,-222.4 
	67,-181.7 "/>
<g>
	<polygon points="325.8,-236.3 341.5,-210.2 263.1,-210.2 316.3,-278.1 273.6,-278.1 278.8,-262.4 263.1,-288.5 341.5,-288.5 
		288.4,-220.7 331,-220.7 	"/>
	<g>
		<path d="M395.3-220c-16.2,0-29.4-13.2-29.4-29.4c0-16.2,13.2-29.4,29.4-29.4c16.2,0,29.4,13.2,29.4,29.4
			C424.7-233.2,411.5-220,395.3-220z M395.3-270.4c-11.6,0-21,9.4-21,21s9.4,21,21,21c11.6,0,21-9.4,21-21S406.9-270.4,395.3-270.4z
			"/>
	</g>
	<path d="M493.2-249.4c0,12.8-8.2,23.7-19.6,27.7c-3.1,1.1-6.4,1.7-9.8,1.7h-24.5v-8.4h24.5c11.6,0,21-9.4,21-21
		c0-11.6-9.4-21-21-21h-24.5v-8.4h24.5c3.4,0,6.7,0.6,9.8,1.7C485.1-273,493.2-262.1,493.2-249.4z"/>
	<path d="M604.8-249.4c0,12.8,8.2,23.7,19.6,27.7c3.1,1.1,6.4,1.7,9.8,1.7h24.5v-8.4h-24.5c-11.6,0-21-9.4-21-21
		c0-11.6,9.4-21,21-21h24.5v-8.4h-24.5c-3.4,0-6.7,0.6-9.8,1.7C612.9-273,604.8-262.1,604.8-249.4z"/>
	<rect x="508.2" y="-278.8" width="9.2" height="58.8"/>
	<polygon points="590.1,-220 580.8,-220 561.2,-267 541.7,-220 532.4,-220 556.6,-278.1 556.9,-278.8 565.6,-278.8 565.9,-278.1 	
		"/>
	<polygon points="566.1,-278.8 565.9,-278.1 565.6,-278.8 	"/>
	<polygon points="556.9,-278.8 556.6,-278.1 556.4,-278.8 	"/>
</g>
<g>
	<polygon class="st0" points="4,-65.8 88,-65.8 130,-23.8 	"/>
	<polygon class="st1" points="4,-65.8 88,-65.8 130,-107.8 	"/>
</g>
<g>
	<polygon class="st0" points="130,44.9 46,44.9 4,86.9 	"/>
	<polygon class="st1" points="130,44.9 46,44.9 4,2.9 	"/>
</g>
</svg>
