<?xml version="1.0" encoding="utf-8"?>
<!-- Generator: Adobe Illustrator 24.3.0, SVG Export Plug-In . SVG Version: 6.00 Build 0)  -->
<svg version="1.1" id="Layer_1" xmlns="http://www.w3.org/2000/svg" xmlns:xlink="http://www.w3.org/1999/xlink" x="0px" y="0px"
	 viewBox="0 0 415.6 130" style="enable-background:new 0 0 415.6 130;" xml:space="preserve">
<style type="text/css">
	.st0{fill:#FFFFFF;}
	.st1{fill:#8E5924;}
	.st2{fill:#F89A1C;}
</style>
<polygon points="-176.1,112.7 -186.1,152.6 -260.9,77.8 -145.3,63.7 -186.1,23 -196,42.9 -186.1,3 -111.3,77.8 -226.8,91.9 
	-186.1,132.7 "/>
<g>
	<polygon class="st0" points="72.7,78.1 88.4,104.2 10,104.2 63.2,36.3 20.5,36.3 25.7,51.9 10,25.8 88.4,25.8 35.3,93.7 77.9,93.7 
			"/>
	<g>
		<path class="st0" d="M142.2,94.4c-16.2,0-29.4-13.2-29.4-29.4c0-16.2,13.2-29.4,29.4-29.4s29.4,13.2,29.4,29.4
			C171.6,81.2,158.4,94.4,142.2,94.4z M142.2,44c-11.6,0-21,9.4-21,21s9.4,21,21,21s21-9.4,21-21S153.8,44,142.2,44z"/>
	</g>
	<path class="st0" d="M240.1,65c0,12.8-8.2,23.7-19.6,27.7c-3.1,1.1-6.4,1.7-9.8,1.7h-24.5V86h24.5c11.6,0,21-9.4,21-21
		c0-11.6-9.4-21-21-21h-24.5v-8.4h24.5c3.4,0,6.7,0.6,9.8,1.7C232,41.3,240.1,52.2,240.1,65z"/>
	<path class="st0" d="M351.7,65c0,12.8,8.2,23.7,19.6,27.7c3.1,1.1,6.4,1.7,9.8,1.7h24.5V86H381c-11.6,0-21-9.4-21-21
		c0-11.6,9.4-21,21-21h24.5v-8.4H381c-3.4,0-6.7,0.6-9.8,1.7C359.8,41.3,351.7,52.2,351.7,65z"/>
	<rect x="255.1" y="35.6" class="st0" width="9.2" height="58.8"/>
	<polygon class="st0" points="337,94.4 327.7,94.4 308.1,47.4 288.6,94.4 279.3,94.4 303.5,36.3 303.8,35.6 312.5,35.6 312.8,36.3 	
		"/>
	<polygon class="st0" points="313,35.6 312.8,36.3 312.5,35.6 	"/>
	<polygon class="st0" points="303.8,35.6 303.5,36.3 303.2,35.6 	"/>
</g>
<g>
	<polygon class="st1" points="-249.1,248.6 -165.1,248.6 -123.1,290.6 	"/>
	<polygon class="st2" points="-249.1,248.6 -165.1,248.6 -123.1,206.6 	"/>
</g>
<g>
	<polygon class="st1" points="-123.1,359.3 -207.1,359.3 -249.1,401.3 	"/>
	<polygon class="st2" points="-123.1,359.3 -207.1,359.3 -249.1,317.3 	"/>
</g>
</svg>
